<svg id="Layer_1" data-name="Layer 1" xmlns="http://www.w3.org/2000/svg" viewBox="0 0 17.84 39.81"><defs><style>.cls-1{fill:none;}.cls-2{fill:#c2bfbf;}.cls-3{fill:#68b245;}.cls-4{fill:#599642;}</style></defs><title>mongo</title><polygon class="cls-1" points="8.8 30.41 9.8 30.41 8.8 31.41 8.8 30.41"/><polygon class="cls-1" points="6.8 28.41 5.8 28.41 6.8 27.41 6.8 28.41"/><path class="cls-2" d="M9,29.71a22.2,22.2,0,0,1-.8,5.2l-.1-.1a12.47,12.47,0,0,1,.7,4.6l1.1.4a18.44,18.44,0,0,1,0-4.2,2.38,2.38,0,0,1,.6-1.1h-.1C9.28,34,9,31.81,9,29.71Z" transform="translate(0.02)"/><path class="cls-3" d="M17.5,15.8C15.4,6.6,10.4,3.6,9.9,2.4A16.65,16.65,0,0,1,8.7.1V0a2.29,2.29,0,0,1-.8,2A23,23,0,0,0,0,18.5C-.5,28.2,7.1,34,8.1,34.8l.1.1A22.2,22.2,0,0,0,9,29.7c0,2.1.3,4.3,1.4,4.8h.1a12.67,12.67,0,0,0,1.3-1.1h0a19,19,0,0,0,5.7-17.6" transform="translate(0.02)"/><path class="cls-4" d="M17.5,15.8C15.4,6.6,10.4,3.6,9.9,2.4A16.65,16.65,0,0,1,8.7.1c.5,1.9.4,17.3.5,19.2.1,3.4,0,6.9-.2,10.4,0,2.1.3,4.3,1.4,4.8h.1a12.67,12.67,0,0,0,1.3-1.1h0a19,19,0,0,0,5.7-17.6" transform="translate(0.02)"/></svg>